<svg version="1" xmlns="http://www.w3.org/2000/svg" width="933.333" height="933.333" viewBox="0 0 700.000000 700.000000"><path d="M493 1c0 .5.1 1.1.2 1.2.5.9-2.5 4.8-3.3 4.3-.5-.4-.9.1-.9.9 0 .9-1.2 1.9-2.6 2.2-1.8.5-2.2 1-1.5 1.7 1.4 1.4 1.4 2.7.1 2.7-.5 0-1.6-1.2-2.4-2.8-1.3-2.3-1.5-2.4-1.6-.7 0 1.2.5 2.6 1.2 3.3.9.9.8 1.2-.5 1.2-.9 0-1.7.6-1.7 1.4 0 .8-.5 1.8-1.1 2.2-.8.4-.9-.1-.5-1.7.6-2 .5-2.1-.4-.7-.6 1-1 1.9-.9 2 .1.2-.3 1.3-.9 2.5-.9 1.6-.9 2.3.1 2.6 1.3.6-1.7 1-4.6.7-.9-.1-1.7.2-1.6.7.5 2.7-.1 3.5-1.6 2.3-1.3-1.1-1.4-1-.9.4.8 2 3.4 2.1 3.4.1 0-1.8 2.6-2 3.6-.3.4.7.4 1-.1.6-.4-.4-1.9.1-3.2 1.2-2.2 1.7-2.7 1.8-4 .4-1.8-1.7-2.9-1.2-1.7.8 1.3 2 1.5 4.8.5 4.8-.5 0-1.2-.8-1.4-1.8-.2-.9-.3-.5-.2 1 .1 1.6-.1 2.8-.5 2.8-.3 0-1.5.8-2.6 1.8-2.4 2.3-5.4 3.4-5.4 2.1 0-.6-.4-.8-1-.4-.5.3-.7 1.2-.4 2 .7 1.6-1.1 3.8-4.1 4.8-1.4.5-1.1.1.9-1.6 2.7-2.2 2.7-2.3 1-3.7-1.7-1.4-1.8-1.3-.6.1 1.1 1.4.9 1.8-1.2 2.3-3 .7-3.8 3.5-1.7 6 1.5 1.8 1.5 1.9-.3 1.3-1.5-.6-1.7-.3-1.3 1.3.4 1.7.3 1.9-.8 1-.7-.6-1.1-1.9-.8-2.9.3-1 0-2.2-.6-2.5-.7-.4-1.1.1-1.1 1.3 0 1.1-.9 2.5-2.1 3.2-1.4.7-1.9 1.7-1.6 3 .3 1 .1 1.9-.3 1.9s-.5 1-.2 2.2c.5 2.2.5 2.2-1.2.5-2.2-2.1-3.6-1.4-3.6 1.9 0 1.3-.4 2.4-1 2.4-.5 0-1-.5-1-1 0-.6-.8-1-1.7-.9-1.1 0-1.3.3-.5.6.6.2 1.2.9 1.2 1.4 0 .6-.4.7-1 .4-.5-.3-1 .2-1.1 1.2 0 1.6-.1 1.6-.8-.1-.5-1.4-1-1.6-1.5-.7-.6.9-1.3.9-3.2-.4-1.3-.8-2.4-1.1-2.4-.5 0 .5-.7 1-1.6 1-.8 0-1.2-.5-.9-1 .3-.6.4-1 .1-1-.3 0-1.2 1.2-2.1 2.7l-1.5 2.8.4-2.8c.3-1.5.3-2.7 0-2.7-.2 0-1 1.2-1.6 2.7-1.1 2.6-1.2 2.7-1.5.6-.4-2.1-3.3-4.1-3.3-2.2 0 .6-.7.6-1.9-.1-1.1-.5-2.2-.6-2.5-.1-.8 1.3.4 2.1 3.3 2.1 2.3.1 2.4.2.8 1.1-1.3.8-2.2.8-2.9.1-.6-.6-1.7-.8-2.4-.5-.9.3-1.4-.2-1.4-1.2 0-1.7-.2-1.7-2.2.1-1.8 1.6-2 1.6-1.5.3.4-1.3.1-1.6-1.4-1.2-1 .3-1.9 1.2-1.9 1.9 0 .8-.4 1.4-1 1.4-.5 0-.7-.6-.4-1.4.3-.8.1-1.7-.4-2-.5-.3-1.2.3-1.5 1.4-.6 2.3-2.7 2.7-2.7.5 0-.8-.4-1.5-1-1.5-.5 0-1 .6-1 1.4 0 .8-.5 1.8-1.1 2.2-.9.5-1-.1-.5-1.9.5-2.1.3-2.5-.9-2-.9.3-1.4 1.2-1.1 1.9.3.7-.3 1.8-1.2 2.3-1.3.7-2 .4-3-1.2-.7-1.2-1.1-1.4-.8-.5.6 1.9-1.9 4.5-2.8 2.9-.3-.5 0-1.2.6-1.4.9-.4.8-.6-.3-.6-.8-.1-3 1-4.8 2.4l-3.4 2.4-3.2-2.4c-1.7-1.4-3.6-2.5-4.1-2.5-.5 0-.2.5.6 1 1.3.8 1.3 1.1-.2 2.7-1 .9-2.1 1.3-2.5.9-.4-.4-.1-1.1.7-1.6 1.3-.8 1.2-1-.2-1-1 0-1.8.6-1.8 1.4 0 1.8-3.4 2.6-6.8 1.6-1.5-.5-2.1-.9-1.4-.9 1.7-.1 1.5-2.1-.2-2.1-.8 0-1.7 1-1.9 2.2l-.4 2.3-.2-2.2c-.1-1.8-.6-2.2-2.6-2.1-1.4.1-2.5.6-2.5 1.1 0 .5.7.7 1.5.3.8-.3 1.5-.2 1.5.3s-.9 1.1-2 1.4c-1.1.3-1.8.2-1.5-.3.3-.4-.3-1.1-1.3-1.5-2.6-1.2-6.2-1.3-6.8-.3-.9 1.5.4 2.2 1.9 1 1.9-1.6 4.6.3 2.9 2-.9.9-1.2.8-1.2-.6s-.3-1.6-1.2-.8c-.7.5-2.6 1-4.3.9-1.6 0-2.4-.2-1.7-.4.6-.3 1.2-.9 1.2-1.4 0-.6-.4-.8-.9-.5-.5.4-1.2 0-1.4-.6-.3-.7-.6-.3-.6.9-.1 1.3-.6 2.3-1.2 2.3-.5 0-.8-.4-.5-.9.8-1.2-2.1-3.4-3.4-2.6-.5.3-1 1.4-1 2.3-.1 1.4-.4 1.3-2-.6-1.1-1.3-2.1-1.8-2.5-1.2-.3.5-.1 1 .4 1 .6 0 1.1.4 1.1.9 0 1-5 .9-6.7-.2-.8-.5-1.3-.4-1.3.2 0 .6-.7.8-1.6.4-1.4-.5-1.5-.3-.5 1.5 1 2 .9 2.2-1.1 2.2-1.3 0-3.1.9-4.1 2-.9 1.1-2.8 2-4.1 2-1.4 0-2.8.4-3.1 1-.3.5-1.6 1-2.8 1-2 .1-2 .2-.4 1.1.9.5 2.1.8 2.6.4.5-.3 1.2-.1 1.6.5 1 1.6-2.4 2.4-4.9 1-1.8-.9-2.8-.9-4.6 0-1.2.6-2.4.9-2.7.6-.4-.3-1.1-.2-1.8.4-.6.5-2.8 1-4.8 1.2-2 .1-3.7.6-3.7 1.1 0 .4-.5.5-1.1.1-.8-.4-.9 0-.4 1.5.4 1.2.2 2.1-.4 2.1-.6 0-1-.6-.9-1.3.2-.7-.9-1.2-3-1.2-2.9-.1-3.4.3-3.9 2.7-.3 1.5-.9 2.6-1.3 2.3-.4-.2-1.5.4-2.5 1.5s-2.5 2-3.4 1.9c-1 0-1.2-.2-.3-.6.6-.2 1-.9.6-1.4-.3-.5-1.1-.6-1.7-.2-2.4 1.5-7.7 3.1-8.2 2.3-.2-.4-2.9-.6-6-.5-3 .1-5.5-.2-5.5-.7 0-.5-.4-.6-1-.3-.5.3-1 .1-1-.5s-.5-.8-1-.5c-.8.5-.7 1.1.1 2.1 1.6 2 1 2.4-4.5 2.8-2.9.2-4.4 0-3.8-.6.5-.5 2.3-1 4-1 2.8-.1 2.9-.2 1.5-1.7-1.2-1.2-1.7-1.3-2.1-.3-.2.6-1.4 1.2-2.7 1.2-1.3 0-3.6.5-5.1 1-3.1 1.2-6.4.5-6.4-1.5 0-.7-.7-1.6-1.6-1.9-1.2-.4-1.5-.2-1 .9.3.8.2 1.5-.3 1.5-.7 0-2.2-3.6-2.5-6.2-.2-1.5-1.6-2-1.6-.5 0 .9-.4 1.7-1 1.7-.5 0-1-.9-1-2s-.5-2-1.1-2c-.6 0-.8.9-.4 2.2.6 2.3.6 2.3-1.5-.1l-2.1-2.5.6 3c.4 1.9.3 2.5-.3 1.6-.5-.8-1.3-1.4-1.8-1.3-.5 0-.8-.9-.6-2 .2-1.8-.2-2-2.8-1.4-2.3.5-3 .3-3-.9 0-.9-.6-1.6-1.3-1.6-.7 0-2-.9-3-2-.9-1.1-2.1-2-2.7-2-1.5 0-1.2.7 1.2 3 2.7 2.5 1.1 2.6-1.9.1-2.6-2.1-2.9-3.7-1-4.4.9-.4.9-.6 0-.6-.6-.1-1.9.9-2.7 2.1-.9 1.2-1.6 1.7-1.6 1.1 0-.7.5-1.5 1-1.8 1.6-1 1.1-2.8-.6-2.1-1.1.4-1.5.2-1.1-.7.2-.7-.6-2.6-1.9-4.2-1.4-1.7-2.2-2.3-1.9-1.4.4 1 0 1.9-1.1 2.3-1.2.4-1.5.2-1-.9.4-1-.1-1.5-1.4-1.5-1.4 0-1.8-.5-1.3-1.8.5-1.4.3-1.5-.8-.5-.7.7-2.4 1.3-3.7 1.3-1.5 0-2.1.4-1.6 1.2.4.7.3.8-.5.4-1.5-1-.4-2.6 1.7-2.6 1.4 0 1.5-.2.2-1-.9-.6-1.7-.5-2.2.3-.5.9-1.4.9-3.8 0-1.6-.6-3-.7-3-.2 0 .5.5.9 1.2.9.6 0 .9.3.6.6-.3.3-2.2-.1-4.1-.9-2.5-1.1-3.8-1.2-4.6-.4-1.7 1.7-1.3-.4.4-2.3 1.4-1.5 1.3-1.6-.7-1.5-4.1.4-10.1-4.3-10.3-8 0-.6-1-1.4-2.3-2-1.2-.5-2.2-1.7-2.3-2.5 0-1.1-.2-1.1-.6-.2-.6 1.5 1.6 4.4 2.8 3.6.5-.3.9.2.9 1s-.5 1.8-1.2 2.2c-.7.5-.8.3-.3-.6.6-1 .3-1.2-1.3-.8-1.5.4-1.9.2-1.5-.8.3-.8 0-1.4-.7-1.4s-1-.6-.7-1.4c.3-.8 0-1.9-.7-2.6-1-.8-1.5-.7-1.9.4-.5 1.2-1.1 1.3-3.6.3-1.7-.6-3.1-1.7-3.1-2.4s-.7-1.3-1.5-1.3c-.9 0-1.2.6-.9 1.7.3 1-.1.7-.9-.7-1.1-1.8-1.2-2.7-.4-3.2.7-.5.8-.8.2-.8-.6 0-1.7.6-2.4 1.2-1.1 1.1-1.2.9-.7-.9.5-1.5.1-2.5-1.2-3.5-1-.7-2.9-2.7-4.2-4.5-1.3-1.8-2.7-3-3.2-2.7-.5.3-.1 1.2.8 1.8 1.3 1 1.4 1.5.4 2.1-.8.5-1.1.4-.7-.2.4-.6 0-1.4-.9-1.7-.8-.3-1.2-1.1-.8-1.8.5-.8 0-.9-1.5-.5-1.8.4-2 .3-1-.9 1.5-1.9.4-3-1.5-1.5-1.2 1-1.4.8-1-1.1.2-1.3.2-1.7-.2-1-.3.6-1 .9-1.5.6-.6-.3-.5-1.1.2-2 .9-1.1.9-1.4-.1-1.4-.6 0-1.4.9-1.7 1.9-.5 1.8-.7 1.8-4.1-.5-2-1.4-4.1-2.3-4.8-2-.7.3-1.8-.2-2.5-1-1-1.2-.9-1.3.3-.9.8.3 2-.1 2.7-.9 1-1.2.9-1.4-.8-.9-1.2.3-2.9-.1-3.8-.8-1-.9-1.4-.9-1-.2.6.9-.2 1.1-2.8.9-1.9-.1-3.5.2-3.5.6 0 .5-.4.7-1 .3-.5-.3-.7-1.2-.4-1.9.3-.8.1-1.7-.5-2.1-.6-.3-1.1-.2-1.1.2 0 .5-1.1 1-2.5 1.1-1.4.1-2.5-.2-2.5-.8 0-.5-.9-.7-2-.5-1.1.2-2.7-.3-3.6-1.2-1.5-1.5-1.6-1.4-1.2 1 .1 1.4-.1 2.6-.7 2.5-2.6-.3-4.5-1.1-4.5-2 0-.5.6-.6 1.2-.2.7.4.4-.2-.6-1.4C57.5 21 55.9 20 55 20c-1 0-2.3-.6-2.9-1.4-.7-.8-1.9-1.3-2.9-1.2-.9.2-2.3-.3-3-1.1-.8-.8-1.7-1.1-2-.8-.8.8 3 3.4 5 3.5 1 0 2.3.6 3 1.3.7.8 1.9 1.3 2.8 1.2.8-.1.9 0 .3.2-.7.3-1.3 1.2-1.4 2.1 0 1.2-.3 1-1-.6-.5-1.3-1.5-2.2-2.1-2-.7.3-1.9-.1-2.6-.9-.7-.7-2.2-1.3-3.2-1.3s-2.2-1-2.5-2.1c-.4-1.2-1-1.7-1.4-1.2-.3.6-2.2 1.4-4.1 1.7-2.2.5-3 .4-2.2-.2 1.1-.7 1-1-.3-1.6-2.3-.9-2.5-.8-1.9.9.8 2-.6 1.9-2.1-.1-1.1-1.6-1.2-1.6-1.8 0-.5 1.1-.3 1.5.5 1 .7-.5.8-.3.3.5-.5.9-1 1-1.8.2-1.4-1.4-3-1.4-2.2-.1.3.5.2 1-.3 1-1.7 0-2.2-1.3-.9-2.8 1-1.3.9-1.4-1-.4-1.2.7-2.4 1.7-2.6 2.4-.3.7-.6.2-.6-1.1-.1-1.7-.5-2.2-1.7-1.7-.9.3-2 .6-2.5.6s-.8.5-.6 1.1c.1.6-.4 1.4-1 1.6-.7.3-1.3 0-1.3-.6s-.5-1.1-1.1-1.1c-.6 0-.8.9-.4 2.2.7 2.3.7 2.3-.8.3-1.1-1.5-1.2-2.3-.5-3.3.6-.7-.3-.5-2.1.5l-3.3 1.8.5 7c.2 3.8.2 6.3 0 5.3-.2-.9-1.1-1.9-1.9-2.2-1.2-.5-1.3-.2-.2 1.7.7 1.2 1.1 2.5 1 2.9-.3 1.3.5.9 2.4-1 1.7-1.6 1.8-1.6 1.1.1-.4 1.1-1 3-1.3 4.3-.3 1.3-1 2.4-1.5 2.4s-.5-.7-.2-1.7c.4-1.1.3-1.4-.5-.9-1.5.9-.9 4.9.8 5.4.7.3 1.6-.2 2.1-.9.6-.9.9-1 .9-.2 0 .7-.6 1.6-1.3 2-.7.4-1.2 2.6-1.2 4.8 0 2.3-.5 3.9-1.1 3.8-.6-.1-1 2.3-1 6.3 0 3.5.4 6.4.8 6.4s.8-.7.8-1.5.4-1.5 1-1.5.6.9-.1 2.6c-.5 1.5-.7 3.5-.3 4.6.3 1 0 2.6-.7 3.4-.9 1.1-.8 1.8.5 3.2 1.8 2.1 2.1 3.2.7 3.2-.5 0-1.1-.9-1.4-2-.3-1.1-1-2-1.7-2s-.6.8.4 2.2c1.2 1.7 1.3 2.5.3 3.7-1.1 1.4-1 1.4.7.1 1.8-1.4 1.9-1.4.7.8-.7 1.2-1.7 2-2.3 1.6-.7-.5-.8-.2-.4.5.5.7 1.4 1 2.2.7.7-.3 1.6-.1 1.9.4.3.5-.4 1.1-1.5 1.5-1.1.4-1.8 1.1-1.4 1.6.3.5 1 .6 1.6.3.7-.5.9-.1.5.9-.3.9-.2 1.9.2 2.2 1.1.6.2 4.5-1.1 4.5-.5 0-.6-.4-.3-1s-.1-.7-.9-.4c-1.4.5-1.4.8-.1 2.1 1.8 1.8 2 3.7.3 2.7-.7-.4-.5.2.5 1.3 2.2 2.5 2.2 3.9-.2 5.5-1.6 1.1-1.6 1.5-.5 2.6 1.2 1.1 1.4 1 1.4-.5s.2-1.6 1-.3c1.5 2.3 1.2 3-1 3-1.1 0-2 .5-2 1 0 .6 1.1.8 2.6.4 1.9-.5 2.5-.4 2 .5-.4.6-1.7 1.1-2.9 1.1-2 .1-2 .2-.4 1.1.9.6 1.5 1.5 1.2 2-.4.5-1 .7-1.4.5-.4-.3-.6 1.1-.5 3 .2 1.9-.1 3.2-.6 2.9-.5-.3-.5.6-.1 2.2s.6 3.5.4 4.3c-.4 1.3-.3 1.3.6 0 .6-.8 1.1-3.6 1.1-6.3 0-2.6.5-4.7 1-4.7 1 0 .6 7-.6 11.2-.3 1-.1 1.8.4 1.8s.9.7.9 1.5c0 .9-.4 1.1-1.1.6-.8-.6-1.1.3-1.3 3.1-.1 3.4.1 3.9 1.8 3.5 1-.3 1.8-.2 1.7.2-.1.3.2 2.1.6 4 .6 2.4.4 3.6-.5 4.2-1 .6-1.1.9-.1.9.6 0 1.2 1.2 1.2 2.7 0 2.1.3 2.4.9 1.4.6-.9.6-2.2.1-3.2-.9-1.6-.4-2.9 1.1-2.9.4 0 .5.9.2 2s0 2 .6 2 1.1.5 1.1 1.1c0 .5-.6.7-1.3.4-.6-.4-.3.1.8 1 1.6 1.3 1.7 1.7.6 2.4-.8.5-1.1 1.6-.8 2.6.4.9 1.1 1.4 1.6 1.1 1.2-.8 2 2.8 1 4.7-.6 1-.4 1.7.5 2 .8.3 1.7.1 2-.6.5-1.3 1 2.1.6 3.8-1.1 4.6-.8 5.5 1.8 5 1.5-.3 2-.2 1.2.1-3.2 1.5-3.8 4-1.1 4.9 1.1.3 2.2 1.3 2.6 2.3.5 1.4.4 1.5-.6.4-1.8-1.7-3.4-1.5-1.9.3.7.8 1 2.4.7 3.6-.5 2-.5 2 1.4.3 2.3-2.1 2.5-1.2.3 2.1-1.6 2.4-1.5 2.5.5 2.5 1.3 0 2.1.6 2.1 1.6 0 1.3-.3 1.4-1.4.5-.9-.8-1.6-.9-2.1-.2-.3.6.6 1.3 2 1.7 2.9.7 3.3 2 .7 2.7-1.2.3-1 .5.8.7 1.4.1 2.9.2 3.4.1s.6.6.2 1.5c-.4 1.2-.2 1.5.9 1 1.4-.5 1.8.1 1.3 2.1 0 .5-1.1.7-2.2.5-1.9-.2-1.9-.2-.4.8 1 .6 1.8 2 1.8 3 0 2.3 1.6 3.5 2.3 1.8.3-.7.6-.3.6.9.1 1.2-.5 2.3-1.1 2.6-1.8.6.9 3.7 3.2 3.7 1.7 0 3.6 2.8 2.5 3.8-.3.3-.5.1-.5-.5 0-1.6-2.5-2.3-4.1-1.1-1.2.8-1.2.9.1.6 1.6-.5 6.4 5.8 5.4 7.3-.3.5-1 .7-1.5.4-.5-.4-.9.2-.9 1.1 0 1.4.3 1.5 1.2.6 2.1-2.1 2.6-1.3 1.8 2.8-.5 2.6-.3 4.1.4 4.4.7.3.7.5-.1.5-.7.1-1.3.5-1.3 1s.9.7 2 .4c2.4-.6 3.7 3.5 2 6.6-.9 1.8-.8 2.1 1 2.1 1.1 0 2 .6 2 1.4 0 .8.4 1.6 1 1.8.5.1 1 1.7 1.2 3.4.2 2.6.6 3 2.3 2.6 1.8-.4 1.9-.3.3.9-1.6 1.3-1.6 1.6-.1 3.4 1.5 2 1.5 2 1-.2-.7-3.2 1.8-1.8 3.3 1.8.7 1.6 1.9 2.9 2.7 2.9 1.2 0 1.3.3.4 1.4-.7.9-.8 1.7-.2 2 .5.3 1.2 0 1.4-.6.3-.8.6-.6.6.4.1 1 .6 1.8 1.1 1.8.6 0 1 .5 1 1 0 .6-1.2.8-2.7.5-1.6-.3-2.2-.3-1.6.1 2.7 1.2 7.3 6.3 6.3 6.9-.5.3-1 .1-1-.5s-.5-.8-1.1-.4c-.8.4-.2 1.2 1.5 2.1 2.8 1.5 3.6 2.9 1 1.9-.9-.3-1.2-.2-.8.5.3.6 1.6 1.4 2.8 1.9 2 .8 2 .8-.7 1.9-2.5 1-3.9 4.1-1.7 4.1.6 0 1 .6 1 1.4 0 .8 1 1.6 2.3 1.8 1.4.2 2.3 1 2.3 2.3.1 1.1.5 2.8.9 3.7.4 1.1.3 1.8-.3 1.8s-1.4-1.6-1.8-3.6c-.6-3.2-.8-3.4-1.7-1.8-.7 1.3-.7 1.9.1 2.2.7.2 1.2 1.7 1.2 3.3 0 1.6.5 2.9 1 2.9.6 0 1-.5 1-1 0-.6.4-1 1-1 .5 0 .7.6.4 1.4-.3.8 0 2.5.6 3.8 1 2.1 1 2.2-.4.4-1.4-1.7-1.5-1.6-1.4 1.3.1 1.9.9 3.7 1.9 4.5 1.1.7 1.6 1.6 1.2 1.9-.3.4-.1.7.6.7s2 .7 2.9 1.6c1.5 1.5 1.4 1.6-.7.9-2.2-.7-2.2-.6-.5 1.4 1.3 1.5 2 1.7 2.6.8.5-.8.8-.4.8 1 0 1.3-.4 2.3-1 2.3-.5 0-1 .5-1 1.2 0 .9.3.9 1.2 0 .7-.7 1.9-1.2 2.7-1.2 1.1 0 1 .4-.5 1.4-1.1.8-1.5 1.8-1 2.3.5.4 1.1.2 1.3-.5.8-2.1 2.3-.2 2.3 2.9 0 1.8.4 2.8 1 2.4.5-.3 1-.1 1 .4 0 .6-1 1.1-2.2 1.1-1.8 0-2 .2-.8.9.8.6 1.7.8 2.1.5.4-.2 1.1.1 1.5.7.4.7.3.9-.3.6-.6-.4-1.4 0-1.7.9-.9 2.4-.7 2.8.7 1.6 1-.9 1.5-.2 2.4 2.8.5 2.2.6 4 .2 4-.5 0-.9-1-.9-2.2 0-1.2-.3-1.9-.6-1.5-1.1 1.1.6 5.7 2.1 5.7.9 0 1.5 1 1.5 2.6 0 1.5.4 2.3 1 1.9.6-.4 1-.3.9.2-.4 2.1.3 3.1 2.1 3.6s2.6 2.7 2.1 6.4c-.1.7.2 1.3.7 1.3.5 0 .7 1.4.4 3-.2 1.8 0 3 .7 3 .6 0 .8-.6.5-1.4-.3-.8 0-2.3.6-3.3.9-1.4 1-1.5.6-.1-.5 1.8 1.3 8.8 2.4 8.8.4 0 .7.7.7 1.5 0 1.1-.4 1.2-1.4.4-1.8-1.6-1.6-.4.2 1.5.9.9 1.7 3.5 1.8 6 .2 3.7.4 4.3 1.8 3.5 1.3-.6 1.8-.3 2.2 1.2.4 1.6.3 1.8-.9.8-1.1-.9-1.4-.8-1.4.3 0 .8.5 1.9 1.1 2.5.8.8.8 1.3 0 1.7-.6.4-1.1.2-1.1-.5s-.2-1-.5-.7c-1 1 .7 3.8 2.3 3.8 1.2 0 1.3.3.4 1.2-.7.7-1.2 1.9-1.2 2.7 0 1.4.2 1.4 1.1.1.7-1.1.8-.6.4 1.9-.6 2.6-.4 3.2.6 2.6.9-.6 1.1-.3.6.9-.4 1-.1 2.4.8 3.2 1.7 1.7 2.1 3.9.5 2.9-.5-.3-1-.2-1 .4 0 .5.6 1.4 1.4 1.8.7.4 1.6 1.5 1.9 2.3.4 1.1.6 1 .6-.4.1-1.8.3-1.7 2.1.4 2.4 2.8 2.5 3.1.3 2.3-1.1-.4-1.4-.3-.9.5.9 1.6 3.3 1.5 3.9-.1.5-1.2.8.2 1.2 5.6.2 3.1 2 4.8 4.2 4 1.9-.8 1.6 1.4-.4 2.6-1.6.9-1.6 1 .5 1.1 2.8 0 4.9 4.5 3.1 6.6-1.3 1.6.2 1.9 1.7.4.6-.6 1-.4 1 .8 0 .9.4 3.3.8 5.2.6 3 .5 3.3-.7 1.8-.9-1.1-1.8-1.4-2.8-.7-.8.5-.9.9-.4.9.6 0 2.1 1 3.4 2.1 1.8 1.5 2.1 2.3 1.3 3.1-.9.9-1.2.9-1.2 0 0-.7-.4-1.2-1-1.2-.5 0-.7.7-.3 1.6.3.9 1.3 1.4 2.4 1.1 1.2-.3 1.6 0 1.2.9-.3.8-1.3 1.4-2.2 1.4-1.3 0-1.3.2-.2.9.8.5 1.1 1.6.7 2.6-.5 1.3-.3 1.6.7.9.7-.5.5-.2-.5.8-1 .9-1.8 2.4-1.8 3.5 0 1.5.2 1.6 1 .3.8-1.2 1-1.1 1 .7 0 1.7-.4 2.1-1.7 1.6-1.6-.6-1.6-.4-.5.9 1.1 1.4 1 2-.4 3.7-2.1 2.4-2.5 5.8-.8 6.5.6.2 1.4 2.1 1.6 4 .4 3.7-.7 3.7-1.5.1-.3-1.1-.3 0-.1 2.5.2 2.8.1 4-.5 3.1-.7-1.1-.9-1.1-1.3 0-.3.8.4 2.2 1.4 3.3 1 1.1 1.5 2.2 1.2 2.5-.3.3-.9-.1-1.3-.8-.7-1-1.3-1.1-3-.2-1.1.7-2.1 1.4-2.1 1.7 0 .3.4.3.9 0s1.4.1 2 .8c1 1.1.8 1.7-.6 2.5-1.6.9-1.6 1 .5 1.1 2.8 0 2.9 1.8 0 2.2-1.2.2-2.3.9-2.4 1.6-.1.7 0 .8.3.2.6-1.4 3-1.3 3.9.2.5.7.3.8-.6.3-.7-.4-1.6-.2-2.1.6-1.2 2-1.1 3.1.3 2.3.7-.4.8-.3.4.4s-.2 1.2.5 1.2 1 .3.7.6c-.4.3-1.6.1-2.7-.6-1.4-.7-2.1-.7-2.1 0 0 .5.5 1 1.1 1 .5 0 .7.5.4 1-.4.6-1.2.8-1.8.4-.7-.3-.4.1.6.9 1.6 1.4 1.6 1.6.2 3.1-1.5 1.4-1.5 1.6-.1 1.6.9 0 1.6.7 1.6 1.5s-.5 1.5-1.1 1.5c-.5 0-.7.5-.4 1 .3.6-.1 1-1.1 1-1.3 0-1.4.3-.5 1.4 1 1.1.8 1.6-.6 2-1.5.5-1.8 1.4-1.5 4.2.3 2.6.1 3.5-.7 3-2.1-1.3-5.2.4-4.6 2.5.8 2.5-.4 4.6-1.6 2.8-.6-1-.9-.8-.9.8 0 1.2-.8 2.9-1.7 3.9-1.2 1.2-1.4 1.9-.6 2.1 1.8.6-.4 4.8-3.4 6.4-1.4.8-2.9 2.4-3.4 3.7-.5 1.4-1.5 2.2-2.2 1.9-.9-.3-1.3.3-1.3 1.6.1 1.3-.5 2.2-1.4 2.2-.8.1-1.4.7-1.2 1.5.3 1.1 0 1.1-1.2 0-1.3-1-1.6-1-1.6.4 0 .9-.4 1.6-1 1.6-.5 0-1 .4-1 1 0 .5.7 1 1.5 1s1.5-.5 1.5-1.2c0-.6.3-.8.6-.5 1.2 1.2-1.6 3.5-3.6 3-1.5-.4-1.8-.1-1.3 1.6.3 1.2 1 2.1 1.5 2.1s.6-.5.3-1c-.3-.6-.1-1 .4-1 .6 0 1.1 1.2 1.1 2.6 0 1.4.5 3.4 1 4.4.8 1.5.7 1.8-.3 1.4-1.1-.4-1.4.6-1.3 4.3 0 2.6.5 5.2 1.1 5.6.6.4.1.7-1 .5-1.6-.2-2 .3-2 2.4 0 1.4-.3 3-.8 3.4-.4.4-.4 2.2-.1 4.1.5 2.4.2 3.4-.9 3.9-.9.3-1.3 1.2-1 2.1.4 1.1.2 1.4-.5.9-.8-.5-1.2.1-1.2 1.5 0 1.9.2 2 1.8.8.9-.7.6 0-.8 1.6-4.8 5.6-4.8 5.6-5.4 4.2-.3-.7-.7-.3-1.1 1-.4 1.2-1.3 1.9-2 1.7-1-.4-1.2.1-.8 1.7.4 1.4.2 2-.5 1.6-.5-.4-1.3-.1-1.6.5-.4.7-.4.3-.2-1 .4-1.8.2-2.1-.9-1.2-.7.6-1.2 2.1-.9 3.4.4 2.5-2.8 6.6-5.2 6.6-1.4 0-1.4.2 0 1.6 1.4 1.4 1.4 3.4 0 3.4-.3 0-.2-.6.2-1.3.5-.8.3-.8-.9.2-.9.7-1.5 1.7-1.2 2.1.2.4-.2 1.5-.9 2.6-1.2 1.6-1.2 2 .3 3.1 1.4 1.1 1.3 1.2-.8 1.3-1.9 0-2.1.3-1.1 1.5.9 1.1.8 1.9-.4 3.7-.9 1.2-1.6 3.2-1.6 4.3 0 1.6.2 1.7.9.5.6-.8.8-1.7.5-2.1-.2-.4.4-.7 1.5-.6 1.7.1 1.8.3.5 2.1-.8 1.1-1.4 2.8-1.4 3.8s-.5 1.8-1.1 1.8c-.6 0-.8.9-.4 2.2.6 1.6.4 2-.8 1.5-.9-.3-1.8.1-2.1 1-.4 1.1-.2 1.4.9 1 .8-.4 1.7-.2 2.1.4.3.6-.4 1.3-1.6 1.6-1.2.3-1.9 1.1-1.6 1.9.3.7.1 1.6-.4 1.9-.5.3-1.1-.3-1.3-1.2-.4-1.4-.5-1.3-.6.4 0 1.2-.6 2.5-1.2 2.9-.6.3-.8 1.7-.4 3.1.5 2.2.4 2.3-1.5 1.3-1.3-.7-2-.7-2 0 0 .5.7 1 1.5 1h2.3c.4 0 .8-.9.8-2.1.1-1.1.7-2.6 1.4-3.2 1.2-1.2 1.2-1.1-.5 5.2-.3 1-1.8 2.2-3.3 2.6-1.5.4-2.1 1-1.4 1.2 1.9.7 1.4 2.6-.6 1.9-1.6-.6-1.6-.5 0 .7 2 1.6 1.4 2.7-1.4 2.7-1.1 0-1.6.5-1.3 1 1 1.7-1.4 3.8-3.6 3.3-1.5-.4-1.8-.2-1.3 1.2.6 1.4.3 1.6-1.7 1-1.9-.6-2.1-.5-1.2.5.9 1 .5 1.8-1.5 3.8-1.5 1.4-2 2.3-1.1 1.9 1.3-.4 1.6-.1 1.2 1.4-.5 1.9-.7 1.9-2.4.3-1.8-1.6-1.9-1.6-1.9.8 0 2.2.5 2.7 3.8 3.1 4.5.6 597.4.5 605.4-.1 4.4-.3 5.5-.7 5.1-1.8-.3-.8 0-1.4.7-1.4 1 0 1-.3.1-1.4-.9-1.1-.9-1.5.1-1.9.7-.2 1-.8.6-1.2-.4-.4-1.4-.2-2.2.4-1.1.9-1.6.9-2.2 0-.4-.8-.3-.9.4-.5s1.2.1 1.2-.8c0-.8.3-2.3.7-3.3.6-1.5.4-1.6-.8-.6-1.3 1-1.5.8-1.5-1.2 0-1.9.4-2.4 1.7-2 2 .7 3.5-1 1.8-2.1-.8-.4-.9-.3-.5.4s.2 1.2-.3 1.2c-.6 0-1.1-1.1-1.1-2.5s-.4-2.4-.9-2.3c-.5.2-.9-.2-.9-.7 0-.6.4-.9.9-.7 1.2.3 1.1-1.5-.1-2.3-.5-.3-1-.1-1 .4 0 .6-.4 1.1-1 1.1-.5 0-.7-1.6-.5-3.5.4-2.9.2-3.3-1.3-2.8-1.5.6-1.5.5-.3-1.1.9-1.1 1.5-4.2 1.5-8.1.1-6.1 0-6.3-1.7-4.4-2.5 2.7-2.8 2.4-1-1.2.8-1.6 1.2-3.3.9-3.6-.3-.4-.6-.1-.6.5 0 2-1.4 1.3-2.6-1.3-1.1-2.2-1-2.4.6-1.5 2.1 1.1 3.5-1.1 1.8-2.8-1.5-1.5-2.1-9.2-.7-9.2.6 0 .3-.8-.6-1.7-1.2-1.1-1.5-2.6-1.2-5 .3-1.8.2-3.3-.4-3.3-.5 0-.9 1-1 2.2-.1 2.2-.1 2.2-.8-.2-.5-1.7-.3-2.6.6-2.8.9-.3.6-.9-1-2.2-1.9-1.5-2.2-2.6-1.9-5.5.3-2.4.7-3.3 1.2-2.4.5.7.4 2.2 0 3.5-.9 2.4-.4 3.4 1.7 3.4 1.1 0 1.1-.4.1-2-1.1-1.7-1-2.2.2-3 1.3-.9 1.3-1.1 0-1.9-.8-.6-1.1-1.3-.7-1.7.4-.4.2-1.3-.4-2-.7-.9-.6-2 .6-3.8 1.5-2.2 1.5-2.6.2-2.6-.8 0-1.8 1-2.2 2.2-.4 1.5-.8 1.8-1.2 1-.3-.7.3-2.2 1.2-3.2 1.7-1.9 1.7-2.1 0-4.6-1.5-2.3-1.5-2.6-.2-2.1 1.2.4 1.4.1 1-1.6-.3-1.2-.4-3.5-.4-5 .1-1.7-.3-2.6-.9-2.2-.6.4-1.1-.6-1.1-2.4-.1-1.7-.2-3.6-.3-4.3-.1-.6.4-1.3 1.1-1.5.8-.3 1.1.7.8 3.4-.2 2.1-.2 2.9.1 1.8.4-1.1 1-2.5 1.5-3.1 1.6-1.9-.1-4.6-2.5-4-2 .5-2 .4.3-1.5 1.8-1.4 1.9-1.9.7-1.9-1.9 0-2.1-3-.3-4.9 1-1.1.9-1.3-.6-.8-1.7.6-1.6.4.2-1.9 3.1-3.9 2.7-5.7-.8-5.2-1.7.2-2.8.1-2.5-.4.3-.4 1-.8 1.5-.8s1.9-.8 3-1.9c1.7-1.6 1.8-1.9.5-2.4-.9-.4-1.5-.1-1.3.5.1.6-.4 1.3-1 1.5-2.1.7-1.5-1.6.7-2.9 1.1-.7 2-2 2-2.9 0-.9-.9-1.9-2-2.2-2.8-.7-2.5-2.6.3-2 1.2.3 1.8.1 1.2-.4-1.4-1.1-3.5-5-3.5-6.5 0-.6.6-.4 1.3.6 1.2 1.6 1.4 1.6 2.6.2 1.2-1.4 1.1-1.6-.3-1-1.2.5-1.5.2-.9-1.2.4-1 .2-1.5-.4-1.1-.5.3-1 0-1-.8s.5-1.1 1-.8c.5.3.7 0 .5-.8-.3-.8-1-1.3-1.5-1.2-.5.1-.9-.6-.9-1.5s-.4-2.7-.8-4c-.5-1.3-.3-2.2.3-2.2s1.1.4 1.1 1c0 .5.4 1 .9 1s.7-.9.4-2c-.3-1.2 0-2 .6-2 .7 0 .9-.5.6-1-.5-.8-1.2-.7-2.3.2-1.6 1.2-1.6 1.1-.2-.6 1.2-1.5 1.2-2 .2-2.4-.8-.2-.2-1.4 1.8-3.2 1.6-1.5 2.6-3 2.3-3.4-.3-.3.1-.6 1-.6s1.9-.5 2.2-1c1.1-1.8-1.4-1.1-3.5 1-2.6 2.6-3.5.9-1-2 1.1-1.3 2-2 2-1.6 0 .4 1 .1 2.2-.5 2.1-1.1 2.1-1.2.3-2.5-1.4-1.1-1.5-1.4-.4-1.4.8 0 1.9.4 2.5 1 .6.6.9-.2.9-2 0-1.7-.4-3-.8-3s-.3-.9.4-2.1c.6-1.2.9-3 .6-4-.3-1.1-.1-1.6.5-1.3.5.4.8 1.7.5 3-.2 1.3 0 2.1.4 1.8.5-.3.9-1.1.9-1.9 0-.7.8-2.1 1.7-3.1 1.6-1.6 1.6-1.6-.5-1-1.3.5-2.2.3-2.2-.3s.6-1.1 1.3-1.1c.6 0 .4-.5-.6-1.1-.9-.6-1.5-1.5-1.1-2.1.4-.7.9-.6 1.4.2.4.7 1.5 1 2.5.7.9-.4 1.3-1.1 1-1.7-.4-.6-1-.8-1.5-.5-.4.3-1-.2-1.3-1-.4-.8-.1-1.2.6-1 1.8.7 5-2.2 4.1-3.6-.4-.8-.3-1 .4-.5.7.4 1.7-.3 2.4-1.9 1.1-2.6 1.2-2.6 2-.6 1.1 3.1 2.6 2.6 2-.6-.5-2.6-.4-2.7 1.3-1.3 1.7 1.3 1.8 1.3 1.3-.1-.4-1.1.2-2 1.9-2.8 1.4-.7 2.3-1.4 2-1.7-.3-.3-1.5-.1-2.6.6-1.4.7-2.1.7-2.1 0 0-.5.7-1 1.5-1 1.8 0 1.9-1.2.3-2.9-1.1-1-1-1.1.5-.6 1 .5 1.7.2 1.7-.5 0-.8.9-1.1 2.5-.7 2.8.5 2.9.8-1.4-4.3-.2-.3-.1.3.2 1.2.4 1 .2 1.8-.4 1.8-.6 0-.9-.9-.6-2 .3-1.1.1-2-.5-2-.5 0 .1-1.8 1.3-4 1.8-3.3 2.6-3.9 4.5-3.4 2.3.6 3-.4 3.8-5.9.1-.9.6-2 1.1-2.4.4-.4.5.2.2 1.4-.6 2.6.8 3 2.9.8 1.4-1.3 1.4-1.5-.1-1.5-.9 0-1.3-.5-1-1.1.4-.6 1.3-.8 2.1-.5.8.3 1.4.1 1.4-.4 0-.6-.4-1-1-1-.5 0-1-.5-1-1.1 0-.6.7-.9 1.5-.5.8.3 1.5 0 1.5-.6 0-.7.5-.6 1.5.2 1.2 1 1.5 1 1.5-.4 0-.9-.4-1.6-.8-1.6s-.8-.9-.8-2 .4-2 .8-2 .8.7.8 1.5.5 1.5 1 1.5c1.1 0 1.2-.7.1-3.5-.6-1.4-.2-2.5 1.3-3.8l2.1-1.8-2.7.5c-1.5.4-3 .1-3.4-.6-.5-.7-.3-.8.6-.3 1 .6 1.2.2.8-1.8-.3-1.4-.1-3.2.3-3.9.6-.9.9-.7.9.9 0 1.2.4 2.4.8 2.7 1.7 1 .6-3.9-1.1-5.2-2-1.5-1.4-3.4.8-2.5 1.1.4 1.3.1.9-1.1-.3-.9-1.1-1.3-1.7-.9-.6.4-.8-.2-.5-1.5.3-1.2.1-2.3-.6-2.6-.6-.2-.5-.5.4-.5.8-.1 2.3-1.9 3.3-4 .9-2.1 2.7-4.3 4-4.9 2-1 2-1.1.3-1.1-1.6-.1-1.7-.4-.8-1.3.7-.7 1.2-2.2 1.2-3.4 0-1.3.5-2.6 1-2.9.6-.4.8-1 .5-1.4-.2-.5-.7-2.9-1-5.5-.5-3.7-.3-4.5.9-4 1 .4 1.7-.7 2.4-4.2.6-2.7.9-5.2.6-5.5-.2-.4.5-1.4 1.6-2.2 1.8-1.3 1.9-1.5.5-2.1-2.4-.9-2.8-.8-2.2.9.4.8.2 1.7-.3 2-.6.3-.8-1.4-.6-4.2.3-3.4.9-4.9 2.3-5.4 1.6-.7 1.5-.8-.5-.8-1.9-.1-2.1-.4-1.3-2 .6-1 .7-2.1.4-2.5-.3-.3.1-.6 1-.6 1.4 0 1.4-.3-.5-2.2-2.1-2.1-2.1-2.2-.2-2.9 1-.4 1.4-.8.7-.8-2-.2-1.9-3.5.2-5.4 1.6-1.4 1.7-1.6.3-1.1-1 .3-1.8.1-1.8-.5s.6-1.1 1.3-1.1c.6-.1.1-1-1.3-2.2-1.5-1.3-1.8-1.9-.8-1.5 1 .3 2 .2 2.3-.3.4-.6.2-1-.4-1-.6 0-.7-.7-.4-1.7.4-1.1.3-1.4-.5-.9-.8.5-1-.2-.6-2.4.4-2 .3-3-.5-3-.7 0-.9-.5-.5-1.1.5-.8.9-.8 1.4.1.5.9.9.9 1.4.1 1.1-1.7-.2-3.1-2.2-2.4-1.5.6-1.5.5-.3-1.1 1.3-1.6 1.2-1.7-1.5-1.1-1.6.4-2.4.3-1.9-.2 1.1-.9 1.7-4.5.5-3.8-1.2.8-3.2-4.2-2.5-6.4.5-1.7.3-2-1.1-1.4-1.4.5-1.3.2.4-1.5 2.3-2.3 3.1-5.9 1-4.6-.8.5-.9.2-.5-.9.8-2-.3-2.2-2.3-.5-1.2 1.1-1.2 1-.1-.5.7-.9 2.2-1.7 3.3-1.7 1.1 0 1.6-.5 1.3-1-.4-.6-1.4-.8-2.3-.6-1.3.4-1.7-.1-1.9-2-.1-1.9.2-2.3 1-1.5 1.4 1.4 2.7 1.4 2.7 0 0-.5-.4-.7-1-.4-1.4.9-1.2-.6.3-1.9.7-.6 1-1 .8-.9-.2.1-1.1-.2-2-.6-1.3-.7-1.6-2.3-1.5-6.8.2-7.2.2-7.2 1.5-5.1.5 1 1.8 1.8 2.7 1.8 1.1 0 1.3-.3.5-.8-.6-.4-1.4-2.7-1.7-5.1-.6-4.7-1.8-6.7-4.7-7.6-1.4-.5-1.8-1.2-1.4-2.6.7-2.1-.5-2.5-2.1-.9-.7.7-1.1.6-1.2-.5-.1-.8-.3-2.2-.4-3.1-.1-.9-1-1.9-2-2.2-2.4-.6-2.3-2.2.1-2.2 1 0 2.5-.7 3.2-1.7 1.3-1.5 1.2-1.5-.7-.5-2.2 1.2-5 0-4-1.7.4-.6.2-1.1-.3-1.1-.6 0-1.1-.5-1.1-1.2 0-.9.3-.9 1.2 0 1.7 1.7 4.2 1.6 2.8-.1-.6-.6-1.8-2.1-2.6-3.2-1.4-1.8-1.5-1.8-1-.1.5 1.4.2 1.7-1 1.2-.8-.3-2.1-.6-2.7-.6-.6 0-.4-.6.5-1.3 1.8-1.4 3.6-6.3 2-5.3-.6.3-1.3-.3-1.7-1.4-.3-1.1-1.1-2-1.7-2-.6 0-.3 1.1.6 2.5 2 3 2 3.6.1 2.9-.8-.4-1.5-1.5-1.5-2.5s-.5-1.9-1.2-1.9c-.6 0-.3-.7.8-1.6 1.8-1.5 1.8-1.5-.3-.9-1.9.5-2.3.2-2.3-1.9 0-1.4-.5-2.8-1-3.1-.6-.4-.9-.3-.8.2.2.4-.1.9-.7 1-.5.1-.8-1-.7-2.6.2-1.9-.2-3.2-1.3-3.9-1.4-.7-1.5-1.1-.3-2.3.7-.8 1.4-2.5 1.5-3.9l.2-2.5-1.1 2.2c-1.6 3.3-2.9 2.8-2.1-.7.4-2.3.2-3-1.1-3-1.4 0-2.1-1.6-1.7-4.6.1-.6-.9-1.6-2.1-2.3-2.2-1.1-2.2-1.1-.2-.8 3.2.6 3-4.1-.2-4.9-1.4-.4-2.1-1.1-1.8-1.9.3-.8 1.2-1.1 2-.8 1.9.7 1.8-4.3-.1-7.7-1.3-2.3-1.4-2.3-1.5-.4 0 1.1.3 2.4.7 2.8 1.1 1.1 1.2 3.6.1 3.6-.5 0-.8-.6-.5-1.3.2-.6-.3-1.9-1.2-2.7-.9-.8-1.6-2.1-1.7-2.8-.1-.6-.2-2.1-.2-3.2-.1-1.2-.7-1.7-1.6-1.4-1.1.4-1.3 0-.9-1.5.6-2.2-1.2-3-2-.9-.3.7-.6-.3-.6-2.2-.1-2.5-.4-3.1-1-2-.6.8-.7 1.9-.3 2.4.3.6-.7 0-2.3-1.3-1.9-1.4-3.1-3.3-3.1-4.9-.3-4.2-.3-4.3-2-4-1 .2-1.9-.3-2.1-1-.3-.6.1-1.2.9-1.2 1 0 .9-.3-.2-1-2.4-1.6-3.1-1.2-2.6 1.7.5 2.7.4 2.7-1 .8-.8-1.1-1.2-2.5-1-3.2.3-.7.1-1.5-.5-1.8-.5-.4-.7-1.1-.3-1.6.3-.6-.2-1.7-1.2-2.4-1.8-1.3-1.8-1.4-.1-1.5.9 0 1.7-.4 1.7-1 0-.5-.7-.7-1.5-.4-1.7.7-2-.7-.4-2.3.7-.7.8-1.3 0-1.7-.6-.4-1.3.5-1.7 2.1-1 4.8-1.4 5-1 .5.3-2.6 0-4-.6-3.6-.6.4-.6 0 0-1.3.6-1 .7-2.5.2-3.2-.4-.8-.7-2.9-.6-4.8.1-2.5-.2-3.2-1.2-2.8-1.1.4-1.3-.1-.8-1.8.4-1.8 0-2.7-1.9-3.7-2.9-1.5-3.1-2.3-1-4 1.9-1.6 1.9-3.4.1-4.9-1.7-1.4-1.5-3.9.4-5.1 2.3-1.4.4-2.3-2.2-1-2.2 1.1-2.2 1.1.2-1.1 1.6-1.5 1.9-2 .8-1.6-2.1.8-4.8-.1-4.8-1.5 0-.6.7-.8 1.5-.4.8.3 2.5.1 3.7-.4 2.2-.8 2.2-.9-.4-.9-2.1-.1-2.5-.5-2.1-2.1.6-2.3-.7-2.6-2.6-.8-1.1 1.1-1.2.9-.7-.7.4-1.6-.1-2.3-2.5-3.4-2.7-1.2-2.8-1.4-1.3-2.5 1.5-1.1 1.5-1.4-.2-3.1-1.4-1.3-1.5-2-.6-2.3.8-.2 1-.8.3-1.5-.5-.7-1.1-2.1-1.4-3.2-.4-1.4-.5-1.2-.4.7.1 1.5-.1 2.7-.5 2.8-2.6.1-3.2-.1-2.3-.8 1.8-1.3 1.7-4.3-.2-5.8-1.4-1-1.4-1.3-.3-1.4 1.1 0 1.1-.3.2-1.2-.7-.7-1.2-2.4-1.2-3.8s-.5-3.1-1.2-3.8c-.9-.9-.9-1.2.1-1.2 1.1 0 1.1-.3.1-1.5-1.1-1.3-1-1.4.4-.9.9.3 1.6.2 1.6-.4 0-.5-.7-1.2-1.5-1.6-.8-.3-1.5-1.1-1.5-1.8 0-.9.3-.9.8-.2 1 1.5 4.2 2.5 4.2 1.4 0-.6-.4-1-.9-1s-1.1-1-1.3-2.3c-.2-1.2-.9-2.1-1.5-2-.6.1-1.6-.3-2.2-1.1-.8-.9-.6-1.2.7-1.1.9 0 2.2.4 2.9.8.7.5.9 0 .6-1.2-.3-1.2-1.1-1.7-1.9-1.4-1.7.6-7.6-3.5-6.8-4.8.3-.6 0-1.7-.8-2.6-.9-1.2-.9-1.5 0-.9.7.4 1.2.1 1.2-.9s-.5-1.3-1.2-.9c-.8.5-.9.2-.5-.9.4-1 0-2-1-2.5-1.2-.7-1.3-1.3-.4-3 1.3-2.4 1.4-3.3.4-2.9-1.1.3-1.3-.7-1.3-5.1 0-2.7.3-3.3 1-2.2.8 1.2 1 .9 1-1.2 0-2.2-.4-2.5-2.2-2.2-1.3.2-1.6.1-.8-.2.8-.4 2.3-1.6 3.5-2.7 1.8-1.8 1.8-1.9.1-1.3-1.4.5-1.7.2-1.2-1 .3-.9-.3-2.7-1.4-4.1-2.4-3.1-2.5-4-.5-4 1 0 1.3.6 1 1.8-.3.9-.1 2 .5 2.4.7.4.9-1.5.6-6.2-.3-3.7-.9-6.9-1.5-7.1-.6-.2-1.1-.8-1.1-1.4 0-.6.6-.8 1.3-.5.8.3 1.3-.3 1.3-1.5 0-1.3-.6-1.8-1.7-1.5-1 .3-2-.2-2.3-1-.4-.9-.2-1.1.6-.7.8.5.9-.1.4-2.1-.7-2.6-.6-2.7 1.1-1.4 1.6 1.3 1.7 1.2.4-.3-.7-1-1.7-1.5-2.2-1.2-.5.3-.9 0-.9-.5 0-.6-.3-1-.7-1-2 .3-2.3-.3-1.2-2.2 1-2 .9-2.1-1.2-1.6-1.3.3-3 .1-3.8-.6-.8-.7-1.2-.8-.9-.2.3.6-.7 1.1-2.4 1.2-2.7.2-3 0-2.6-2.1.4-2.2.3-2.3-1.8-1.5-1.3.4-3.1.6-3.9.3-1-.4-1.5 0-1.6 1.2 0 1.7-.1 1.6-.9-.2-1.1-2.8-4-3.9-4-1.6 0 1-.3 1.3-.8.6-.4-.6-1.4-1.2-2.2-1.3-4.2-.6-50.7-.7-54.5-.1-2.7.4-4.2.3-3.8-.3.5-.8-2.2-.5-8.2.9-1.6.4-1.7.3-.5-.5 1.3-.9 1.3-1.1-.2-1.1-1 0-1.8.4-1.8 1zm93.3 6.5c-.3.9-.8 1.4-1 1.1-.3-.3-.2-.9.2-1.5.9-1.6 1.5-1.3.8.4zM18.1 18.7c-1.2 2-1.4 1.4-.5-1.2.4-.9.9-1.4 1.1-1.1.3.2 0 1.3-.6 2.3zM7.7 22c-1.3 3.5-2.2 2.3-1.3-1.6.4-1.4 1.1-2.2 1.5-1.9.5.3.4 1.9-.2 3.5zm585 6.3c-.4 1.9-.4 1.8-.6-.5 0-1.5-.5-3-1.1-3.3-.5-.3-1-1.1-1-1.8 0-.6.7-.1 1.6 1.1.8 1.2 1.3 3.2 1.1 4.5zM67.4 26.6c.3.8.2 1.2-.4.9-.6-.3-1-1-1-1.6 0-1.4.7-1.1 1.4.7zm6.6 0c0 .8-.5 1.2-1 .9-.6-.4-.8-1.1-.5-1.6.9-1.4 1.5-1.1 1.5.7zm518.7 14.6c-.3.8-.6.5-.6-.6-.1-1.1.2-1.7.5-1.3.3.3.4 1.2.1 1.9zm-480.4 3.3c.4.8.2 1.7-.3 2-.6.4-1-.3-1-1.4 0-2.5.6-2.7 1.3-.6zm479 4.5c.3 1.1.1 2-.4 2s-.9-.9-.9-2 .2-2 .4-2 .6.9.9 2zM5.8 56.5c-.1 2.1-.5 3.2-1 2.7-.8-.8-.1-6.2.8-6.2.2 0 .3 1.6.2 3.5zm438.2-.4c0 .6-.4.7-1 .4-.5-.3-1-1.1-1-1.6 0-.6.5-.7 1-.4.6.3 1 1.1 1 1.6zm147.1 3.2c-1 .9-1.1.8-.5-.6.3-1 .9-1.5 1.2-1.2.3.3 0 1.1-.7 1.8zm-167.4 9.4c-.3.3-1.1.2-1.7-.2-.9-.6-.9-1 .1-1.6 1.4-.8 2.7.7 1.6 1.8zM374.5 72c-.3.5-1.1 1-1.6 1-.6 0-.7-.5-.4-1 .3-.6 1.1-1 1.6-1 .6 0 .7.4.4 1zm-49.8 2.2c-.3.8-.6.5-.6-.6-.1-1.1.2-1.7.5-1.3.3.3.4 1.2.1 1.9zm40.8-1.2c.3.5.1 1-.4 1-.6 0-1.1-.5-1.1-1 0-.6.2-1 .4-1 .3 0 .8.4 1.1 1zm-187.7 6.5c-.3.3-.9-.2-1.2-1.2-.6-1.4-.5-1.5.5-.6.7.7 1 1.5.7 1.8zM307 80c0 .5-.4 1-1 1-.5 0-1-.5-1-1 0-.6.5-1 1-1 .6 0 1 .4 1 1zm-7 4c0 .5-.4 1-1 1-.5 0-1-.5-1-1 0-.6.5-1 1-1 .6 0 1 .4 1 1zm-10.5 4.6c-.9.9-2.7 1.6-4 1.6-1.6 0-2.2.5-1.8 1.4.3.8.1 1.4-.5 1.4-2.4 0-.2-3.4 2.9-4.5 4.8-1.8 5.3-1.7 3.4.1zm-8.5 2.3c0 1.1-3.9 2.5-4.7 1.8-.3-.3-.2-1 .2-1.6.8-1.3 4.5-1.5 4.5-.2zm-89.3.7c-.3.3-1.2.4-1.9.1-.8-.3-.5-.6.6-.6 1.1-.1 1.7.2 1.3.5zm5.6 1.5c-.4 1.3-.9 1.7-1.5 1.1-1.1-1.1-.3-3.2 1.2-3.2.4 0 .6.9.3 2.1zm71.9 1.1c-.6.6-1.5.8-1.9.4-.4-.4-.1-1.1.7-1.6 1.9-1.2 2.7-.3 1.2 1.2zm-26.8 6.7c.8 1.2-4.1 2.4-5.7 1.4-.8-.5-.3-1 1.3-1.4 3.6-1 3.8-1 4.4 0zm8.2.3c.5-.4.2.1-.6 1.2-.8 1-1.6 1.4-1.8.7-.2-.6-1-1.1-1.8-1.1-.9 0-1.2-.5-.9-1 .4-.7 1.2-.7 2.4 0 1 .5 2.2.6 2.7.2zm3.4-.2c0 .5-.2 1-.4 1-.3 0-.8-.5-1.1-1-.3-.6-.1-1 .4-1 .6 0 1.1.4 1.1 1zm367 36.1c0 .5-.4.9-1 .9-.5 0-1-.7-1-1.6 0-.8.5-1.2 1-.9.6.3 1 1 1 1.6zm-613-.7c0 .2-.7.9-1.5 1.6-1.3 1.1-1.4 1-.9-.4.5-1.4 2.4-2.3 2.4-1.2zm613.3 9c.4 1 .1 1.3-.8.9-.8-.3-1.2-.9-.9-1.4.7-1.2 1.1-1.1 1.7.5zm3.2 9.4c.2 1.2.6 2.6 1 3.1.3.5 0 1.3-.6 1.7-.7.4-.9.3-.5-.4.3-.6.1-1.4-.5-1.7-.5-.4-.8-1.3-.5-2.1.3-.8-.3-2.2-1.4-3.1-1.1-1-2-2.2-2-2.7 0-1.8 4 2.9 4.5 5.2zm6.2 19.8c-.3.3-1.2.4-1.9.1-.8-.3-.5-.6.6-.6 1.1-.1 1.7.2 1.3.5zm6.7 8c.3.8.2 1.2-.4.9-.6-.3-1-1-1-1.6 0-1.4.7-1.1 1.4.7zM489 184.4c9.3.8 11.2 1.3 24.5 5.7 19.4 6.4 38.8 16.5 63.4 32.8 14 9.2 17.2 12.2 30.4 27.9 14.1 16.7 16.6 20 17.3 23.3 1 5 6.4 35.4 7 39.8.3 2.5.7 5.5.9 6.6 1.3 8.5 3.9 27.7 5 36.7.4 4.2 1.4 16.8 2 27.8.4 7.3.3 7.7-5.6 21-13.4 30.1-19.2 40.5-29.9 53.1-14.3 16.8-25.1 25.6-36.6 29.9-3 1.1-11.1 2.7-18 3.5-8.3 1.1-14.2 2.4-17.7 3.9-11.8 5.4-42.9 14.8-53.5 16.2-2.6.3-7.4.9-10.7 1.4-7 .9-52.1.5-57.9-.5-2.2-.4-7.2-1.8-11-3.2-20.8-7.4-32.6-16.6-68-52.8-39.1-40.1-41.9-43.2-46.7-53.4-11.3-23.8-14-35.9-14.4-65.1-.2-14.8.3-17 4.7-21.3 6.9-6.7 27.4-33.3 43.7-56.7 13-18.5 31.6-33.3 62.1-49.2 14-7.4 23.4-12.2 24-12.3.3-.1 6.1-2.9 13-6.2 15.2-7.3 18.2-8.3 27.4-9.2 8.2-.7 35-.5 44.6.3zM33 206c0 .5-.4 1-1 1-.5 0-1-.5-1-1 0-.6.5-1 1-1 .6 0 1 .4 1 1zm623 5c0 .5-.8 1-1.7 1-1.5 0-1.6-.2-.3-1 1.9-1.2 2-1.2 2 0zm32.3 69c.4 1.7.3 1.9-.9.9-.8-.6-1.4-1.8-1.4-2.6 0-2 1.6-.8 2.3 1.7zm-.8 3c.3.6-.1.7-.9.4-1.8-.7-2.1-1.4-.7-1.4.6 0 1.3.4 1.6 1zM65 287c0 .5-.2 1-.4 1-.3 0-.8-.5-1.1-1-.3-.6-.1-1 .4-1 .6 0 1.1.4 1.1 1zm3 2.4c0 .2-.7.6-1.5 1-.8.3-1.5.1-1.5-.4 0-.6.7-1 1.5-1s1.5.2 1.5.4zm620.7 23.2c-.3.3-1.2.4-1.9.1-.8-.3-.5-.6.6-.6 1.1-.1 1.7.2 1.3.5zm.1 13.5c-.3.8-.7.3-1.1-1-.4-1.7-.3-2.1.5-1.3.5.5.8 1.6.6 2.3zm5.5 53.5c-.7 2-2 1.7-2.6-.5-.3-1.4 0-1.7 1.4-1.4 1 .3 1.5 1.1 1.2 1.9zm-1 3.9c.4.8.2 1.7-.3 2-.6.4-1-.3-1-1.4 0-2.5.6-2.7 1.3-.6zm-2.3 13.1c0 .8-.5 1.2-1 .9-.6-.4-.8-1.1-.5-1.6.9-1.4 1.5-1.1 1.5.7zm-1 5.9c0 .5-.5.3-1-.5s-1-2-1-2.5c0-.6.5-.3 1 .5s1 1.9 1 2.5zm-578 7.4c0 .6-.4 1.3-1 1.6-.5.3-1-.1-1-.9 0-.9.5-1.6 1-1.6.6 0 1 .4 1 .9zm9 15.6c0 .8-.2 1.5-.4 1.5s-.6-.7-1-1.5c-.3-.8-.1-1.5.4-1.5.6 0 1 .7 1 1.5zM670 456c-.8.5-1.8.6-2.4.3-.5-.4-.1-1 1-1.3 2.4-.9 3.4-.2 1.4 1zm-542 16.4c0 .3-.4.8-1 1.1-.5.3-1 .1-1-.4 0-.6.5-1.1 1-1.1.6 0 1 .2 1 .4zm-18 67.5c0 .6-.4 1.3-1 1.6-.5.3-1-.1-1-.9 0-.9.5-1.6 1-1.6.6 0 1 .4 1 .9zm520.7 16.3c-.3.8-.6.5-.6-.6-.1-1.1.2-1.7.5-1.3.3.3.4 1.2.1 1.9zm2.3 10.9c-.7 1.1-1.4 1.8-1.7 1.5-.3-.3 0-1.2.7-2.1 1.8-2.1 2.3-1.9 1 .6zm-542.4 23c.1 2-.2 2.6-.7 1.7-1.1-1.6-1.2-4.8-.1-4.8.4 0 .7 1.4.8 3.1zm542.2 4.5c0 1.7-.3 2.2-.8 1.3-.5-.6-.6-1.8-.3-2.6.8-1.9 1.1-1.6 1.1 1.3zm-543.8.6c0 1.9-.2 2-1 .8-1.3-1.9-1.3-3 0-3 .6 0 1 1 1 2.2zm-1 5.8c0 .5-.4 1-1 1-.5 0-1-.5-1-1 0-.6.5-1 1-1 .6 0 1 .4 1 1zm544 1c0 .5-.5 1-1.1 1-.5 0-.7-.5-.4-1 .3-.6.8-1 1.1-1 .2 0 .4.4.4 1zm1.5 11c.3.5.1 1-.4 1-.6 0-1.1-.5-1.1-1 0-.6.2-1 .4-1 .3 0 .8.4 1.1 1zM69 627c0 .5-.2 1-.4 1-.3 0-.8-.5-1.1-1-.3-.6-.1-1 .4-1 .6 0 1.1.4 1.1 1zm-2.7 6c-.3 1.1-1.2 2-2.1 2-1.3 0-1.2-.3.3-2 1-1.1 1.9-2 2.1-2 .1 0 0 .9-.3 2zm570.7 3.1c0 .6-.4.7-1 .4-.5-.3-1-1.1-1-1.6 0-.6.5-.7 1-.4.6.3 1 1.1 1 1.6zm-573 5.4c0 .8-.3 1.6-.7 1.8-.5.3-.8-.5-.8-1.8s.3-2.1.8-1.8c.4.2.7 1 .7 1.8zm574 5c1.1 1.3 1 1.4-.4.9-.9-.3-1.6-1-1.6-1.5 0-1.3.6-1.1 2 .6zm4 18.7c0 .5-.4.8-1 .8-.5 0-1-1-1-2.3 0-1.8.2-1.9 1-.7.5.8 1 1.8 1 2.2zM40.5 692c.3.5.2 1-.4 1-.5 0-1.3-.5-1.6-1-.3-.6-.2-1 .4-1 .5 0 1.3.4 1.6 1z"/><path d="M490 4.1c0 .5.5.7 1 .4.6-.3 1-.8 1-1.1 0-.2-.4-.4-1-.4-.5 0-1 .5-1 1.1zM578 4c0 .5.7.7 1.5.4.8-.4 1.5-.8 1.5-1 0-.2-.7-.4-1.5-.4s-1.5.4-1.5 1zM591.2 7.4c.7.8 1.5 1.2 1.7 1.1.5-.6-1-2.5-2-2.5-.5 0-.4.6.3 1.4zM484 7.4c0 .2.7.7 1.6 1 .8.3 1.2.2.9-.4-.6-1-2.5-1.4-2.5-.6zM473.2 21c-.6 1.1-.8 2.1-.3 2.5.5.3 1.3-.4 1.6-1.6.9-2.8.2-3.3-1.3-.9zM79.2 24.6c1 1 2 1.5 2.4 1.2.3-.4-.5-1.2-1.8-1.8-2.2-1.2-2.2-1.2-.6.6zM91.8 29.7c.7.3 1.6.2 1.9-.1.4-.3-.2-.6-1.3-.5-1.1 0-1.4.3-.6.6zM96 30.5c-.8.9-.8 1.5-.2 1.5 1.2 0 2.6-1.9 1.9-2.6-.2-.2-1 .2-1.7 1.1zM460.5 33c-.3.6.1.7.9.4 1.8-.7 2.1-1.4.7-1.4-.6 0-1.3.4-1.6 1zM460.4 36.5c-1 .8-2.8 1.5-3.9 1.5-1.6 0-1.7.2-.6.9 1.7 1.1 5.7-.5 6.5-2.5.7-1.8.4-1.7-2 .1zM2.7 46.9c-.3 1.2-.1 2.1.3 2.1 1.4 0 1.9-1.5 1.1-2.9-.6-.9-1-.7-1.4.8zM121 50.1c0 .5.5.7 1 .4.6-.3 1-.8 1-1.1 0-.2-.4-.4-1-.4-.5 0-1 .5-1 1.1zM594 51.5c0 .8.2 1.5.4 1.5s.6-.7 1-1.5c.3-.8.1-1.5-.4-1.5-.6 0-1 .7-1 1.5zM125.5 54c.3.5 1.1 1 1.6 1 .6 0 .7-.5.4-1-.3-.6-1.1-1-1.6-1-.6 0-.7.4-.4 1zM142.7 62.7c-.4.3-.7 1.1-.7 1.7 0 .6.5.5 1.2-.2.6-.6.9-1.4.7-1.7-.3-.3-.9-.2-1.2.2zM145 64.9c0 .6.5 1.3 1 1.6.6.3 1-.1 1-.9 0-.9-.4-1.6-1-1.6-.5 0-1 .4-1 .9zM3 70c0 1.9.3 2.1 1.2 1.2.9-.9.9-1.5 0-2.4-.9-.9-1.2-.7-1.2 1.2zM153.6 69.9c-.4.5-.2 1.2.3 1.5.5.4 1.2.2 1.5-.3.4-.5.2-1.2-.3-1.5-.5-.4-1.2-.2-1.5.3zM597.6 69.7c-.3.3-.3 1 0 1.4.7 1.2 3.4 1.1 3.4 0s-2.6-2.2-3.4-1.4zM352.5 71c-.7 1.2-.7 1.2 2.3 1.5 2.7.3 2.8-.1.3-1.5-1.3-.7-2.2-.7-2.6 0zM367.5 70.9c-.3.5-.1 1.2.5 1.6.5.3 1-.1 1-.9 0-1.8-.6-2.1-1.5-.7zM601.6 71.9c-.4.7-.5 1.5-.2 1.8.9.9 1.9-.4 1.4-1.8-.4-1.1-.6-1.1-1.2 0zM313.5 73c.3.5.8 1 1.1 1 .2 0 .4-.5.4-1 0-.6-.5-1-1.1-1-.5 0-.7.4-.4 1zM301.1 79.6c0 1.1.3 1.4.6.6.3-.7.2-1.6-.1-1.9-.3-.4-.6.2-.5 1.3zM604.5 90c-.3.5.1 1 .9 1 .9 0 1.6-.5 1.6-1 0-.6-.4-1-.9-1-.6 0-1.3.4-1.6 1zM2.7 91.4c-.4 1-.1 1.3.9.9 1.5-.6 1.9-2.3.5-2.3-.5 0-1.1.7-1.4 1.4zM262.3 93.9c-1.2 1.1-2.4 1.7-2.7 1.4-.3-.4-.6-.1-.6.5 0 .7.3 1.2.6 1.2 1.3 0 4.2-2.1 4.8-3.5.7-2 .4-1.9-2.1.4zM605.3 93.5c-.3.9-.3 1.8-.1 2.1.3.3.8-.4 1.1-1.6.6-2.3-.1-2.7-1-.5zM255.8 95.7c.7.3 1.6.2 1.9-.1.4-.3-.2-.6-1.3-.5-1.1 0-1.4.3-.6.6zM217 100c0 .5.4 1 .9 1 .6 0 1.3-.5 1.6-1 .3-.6-.1-1-.9-1-.9 0-1.6.4-1.6 1zM613.8 115.7c.7.3 1.6.2 1.9-.1.4-.3-.2-.6-1.3-.5-1.1 0-1.4.3-.6.6zM4.5 142.5c-1.1.9-1.4 1.3-.7 1 .9-.5 1.5.1 1.9 1.4.3 1.2.9 2.1 1.4 2.1 1 0 1.1-1.7.1-4.3-.7-1.6-.9-1.6-2.7-.2zM621 141.4c0 .2.7.7 1.6 1 .8.3 1.2.2.9-.4-.6-1-2.5-1.4-2.5-.6zM18 184c0 .5.5 1 1.1 1 .5 0 .7-.5.4-1-.3-.6-.8-1-1.1-1-.2 0-.4.4-.4 1zM641 185.1c.7 1.1 1.4 1.9 1.6 1.6.7-.7-.7-3.7-1.7-3.7-.6 0-.5.9.1 2.1zM652.1 195.6c0 1.1.3 1.4.6.6.3-.7.2-1.6-.1-1.9-.3-.4-.6.2-.5 1.3zM663.5 231c.3.5.8 1 1.1 1 .2 0 .4-.5.4-1 0-.6-.5-1-1.1-1-.5 0-.7.4-.4 1zM40.1 238.5c.1 1.9 1.8 5.1 1.8 3.5 0-.8-.4-2.2-.9-3-.5-.8-.9-1.1-.9-.5zM677.5 260c.3.5.8 1 1.1 1 .2 0 .4-.5.4-1 0-.6-.5-1-1.1-1-.5 0-.7.4-.4 1zM680.5 265c.3.5.8 1 1.1 1 .2 0 .4-.5.4-1 0-.6-.5-1-1.1-1-.5 0-.7.4-.4 1zM680.5 268c.3.5 1 1 1.6 1 .5 0 .9-.5.9-1 0-.6-.7-1-1.6-1-.8 0-1.2.4-.9 1zM685 273.1c0 .5.5.7 1 .4.6-.3 1-.8 1-1.1 0-.2-.4-.4-1-.4-.5 0-1 .5-1 1.1zM687.4 290.5c-.8 2.1.1 2.9 1.9 1.8 1.3-.7 1.3-1 .1-2.1s-1.5-1-2 .3zM688.6 294.9c-.4.7-.5 1.5-.2 1.8.9.9 1.9-.4 1.4-1.8-.4-1.1-.6-1.1-1.2 0zM85.2 349.4c.7.8 1.5 1.2 1.7 1.1.5-.6-1-2.5-2-2.5-.5 0-.4.6.3 1.4zM90.5 357c-.3.5.1 1 .9 1 .9 0 1.6-.5 1.6-1 0-.6-.4-1-.9-1-.6 0-1.3.4-1.6 1zM696 370.1c0 .5.5.7 1 .4.6-.3 1-.8 1-1.1 0-.2-.4-.4-1-.4-.5 0-1 .5-1 1.1zM99.5 383c.3.5.8 1 1.1 1 .2 0 .4-.5.4-1 0-.6-.5-1-1.1-1-.5 0-.7.4-.4 1zM693.7 389.7c-.4.3-.7 1.1-.7 1.7 0 .6.5.5 1.2-.2.6-.6.9-1.4.7-1.7-.3-.3-.9-.2-1.2.2zM687.1 413.1c-1.9 3.2-2.1 4.3-1.1 5.2 1 .9 1.1.9.5-.2-.5-.9-.2-1.9 1-2.7 1-.8 1.6-1.7 1.2-2-.4-.4-.2-1.3.5-2.1.6-.7.9-1.6.6-1.8-.2-.3-1.5 1.4-2.7 3.6zM691.5 410c-.3.5-.1 1 .4 1 .6 0 1.1-.5 1.1-1 0-.6-.2-1-.4-1-.3 0-.8.4-1.1 1zM115.2 421.4c.7.8 1.5 1.2 1.7 1.1.5-.6-1-2.5-2-2.5-.5 0-.4.6.3 1.4zM122.6 434.5c.4.8 1 1.5 1.5 1.5.4 0 .6-.7.3-1.5-.4-.8-1-1.5-1.5-1.5-.4 0-.6.7-.3 1.5zM124.5 441c-.3.6.1.7.9.4 1.8-.7 2.1-1.4.7-1.4-.6 0-1.3.4-1.6 1zM664.6 462.9c-.4.7-.5 1.5-.2 1.8.9.9 1.9-.4 1.4-1.8-.4-1.1-.6-1.1-1.2 0zM653.1 485.4c-.9 1-.8 1.5.3 1.9 1.1.4 1.3.1.9-1-.5-1.2-.3-1.4.7-.8.9.5 1.1.4.6-.3-.9-1.5-1.1-1.5-2.5.2zM648.5 489c-.3.5-.1 1 .4 1 .6 0 1.1-.5 1.1-1 0-.6-.2-1-.4-1-.3 0-.8.4-1.1 1zM117.1 517.6c0 1.1.3 1.4.6.6.3-.7.2-1.6-.1-1.9-.3-.4-.6.2-.5 1.3zM112.6 527.4c.3.9 1.1 1.6 1.6 1.6 1.3 0 .5-2.3-1-2.8-.7-.2-1 .2-.6 1.2zM107 533c0 .5.5 1 1.1 1 .5 0 .7-.5.4-1-.3-.6-.8-1-1.1-1-.2 0-.4.4-.4 1zM632 533.8c0 .5 1.1 1.7 2.5 2.6 1.4.9 2.5 1.2 2.5.6 0-.5-.4-1-.9-1s-1.7-.7-2.5-1.6c-.9-.8-1.6-1.1-1.6-.6zM102.7 545.4c-.9.7-1.7 1.8-1.7 2.5 0 .6.9.2 2.1-1 2.4-2.4 2.2-3.3-.4-1.5zM96.2 551.9c-1.1.7-1.1.9.2 1.4 1 .4 1.6.1 1.6-.8 0-1.7-.1-1.7-1.8-.6zM91.5 557c.3.5.8 1 1.1 1 .2 0 .4-.5.4-1 0-.6-.5-1-1.1-1-.5 0-.7.4-.4 1zM87 574c-.8.5-1 1-.5 1 .6 0 1.7-.5 2.5-1s1.1-1 .5-1c-.5 0-1.7.5-2.5 1zM86.5 578c.3.5.8 1 1.1 1 .2 0 .4-.5.4-1 0-.6-.5-1-1.1-1-.5 0-.7.4-.4 1zM86.5 581.1c-1.1 1.7.1 2.1 1.5.4.8-.9.8-1.5.2-1.5-.6 0-1.4.5-1.7 1.1zM636.5 602c.3.5.8 1 1.1 1 .2 0 .4-.5.4-1 0-.6-.5-1-1.1-1-.5 0-.7.4-.4 1zM79 608.4c0 1.8.1 1.9 2 .1 1.1-1 2-1.9 2-2.1 0-.1-.9-.2-2-.1-1.3.1-2 .8-2 2.1zM66.8 620.8c-.7 2.6.4 2.9 2.3.5.8-.9.9-1.4.2-1-.6.4-1.3.2-1.5-.5-.3-.7-.7-.2-1 1zM44 684.1c0 .5.5.7 1 .4.6-.3 1-.8 1-1.1 0-.2-.4-.4-1-.4-.5 0-1 .5-1 1.1z"/></svg>